<svg xmlns="http://www.w3.org/2000/svg" xml:space="preserve" id="svg1" version="1.1" viewBox="0 0 180 170">
  <g id="g1" transform="translate(0 5)">
    <path id="path5" fill="#490e12" stroke-width="1" d="M90-5C35-5 53 47 0 47v118h180V47c-53 0-35-52-90-52Z"/>
    <path id="path1" fill="none" stroke="#fff2e9" stroke-opacity="1" stroke-width="1" d="M90 0C40 0 58 52 5 52v108h170V52c-53 0-35-52-85-52Z"/>
    <path id="text1" fill="#fff2e9" stroke-linecap="round" stroke-linejoin="round" stroke-width="3" d="M139.87562 58.164521c-2.41724 5.773816-4.14958 12.654486-8.89209 16.979428-4.03985 1.581296-6.37828 1.471308-12.32366 1.008356-5.94537-.462951-8.06677.874916-8.12931 3.223588-.84026 31.555137 1.93703 73.638247 1.27587 86.280837-17.596543-1.12318-26.334776-.77272-34.448539 0 2.390842-17.21405 1.499791-84.539393 1.754324-89.630001-8.931104.744259-14.725689 2.498582-17.383755 5.262971-2.658067 2.764389-5.316133 7.017296-7.9742 12.75872-5.243444-4.305257-7.672031-9.703748-7.495748-16.745819.724024-9.170977 1.595776-11.777373 5.262972-14.672528 7.602255-7.428151 31.143139-4.944004 45.93139-4.944004 14.147296-.32959 28.284126.04393 42.422746.478452z" aria-label="T" font-family="Taco Bell Old" font-size="159.484" style="-inkscape-font-specification:'Taco Bell Old'" transform="matrix(1.0209359 0 0 .97949343 -5 -10)"/>
  </g>
</svg>