<svg xmlns="http://www.w3.org/2000/svg" id="svg21" version="1.1" viewBox="0 0 123 123">
  <g id="g33" stroke-linecap="round" stroke-linejoin="round" stroke-width="1" transform="matrix(1.2 0 0 1.2 -132.26484 38.880469)">
    <path id="path33" fill="#3c8e9e" d="M211.36914 15.849609h-99.68359a50 50 0 0 0-.21485 3 50 50 0 0 0 50 50 50 50 0 0 0 50-50 50 50 0 0 0-.10156-3z"/>
    <path id="path32" fill="#754a97" d="M211.36328 15.771484a50 50 0 0 0-7.55859-23.4999996h-84.64453a50 50 0 0 0-7.47071 23.4999996Z"/>
    <path id="path31" fill="#e7727f" d="M119.16016-7.7285156h84.64453A50 50 0 0 0 161.4707-31.150391a50 50 0 0 0-42.31054 23.4218754Z"/>
  </g>
  <!-- <g id="g22" display="inline" transform="translate(11.4699749 6.88432)">
    <g id="g93" fill-opacity="1" display="inline">
      <path id="path43" fill="#efe489" d="M45.925781 17.601562c-3.870055.155136-6.110932 1.339907-8.28125 2.488282-1.289029.683562-2.507879 1.324246-4.058594 1.757812-1.789001.499973-3.378992.04685-5.0625-.429687-2.445165-.695282-5.215024-1.476411-8.949218.488281-1.503818.789057-2.718806 1.789183-3.707031 3.070312-.867153 1.117139-1.453159 2.289138-2.023438 3.421875-.988246 1.972592-1.925883 3.836046-4.2226562 5.109375-.011718.0039-.019533.01172-.035156.01953-2.1248831 1.331926-3.4453383 3.129065-3.9140625 5.339843-.2343581 1.113239-.2538901 2.332059-.050781 3.617188.1562415 1.011644.449237 2.066484.8710938 3.140625.5599562 1.430688 1.0870737 2.313913 1.3476562 2.730469-.071391.16334-.1498709.324096-.21875.488281-1.8905735 4.495771-2.8476562 9.277576-2.8476562 14.203125 0 2.613167.5117697 5.148578 1.5117187 7.535156.9687506 2.308383 2.3516776 4.379041 4.1171882 6.15625 1.76551 1.77721 3.824291 3.175834 6.109375 4.152344 2.367079 1.007729 4.886801 1.523437 7.480468 1.523437h61.443407c1.328032 0 2.613293-.261747 3.832031-.769531 1.167941-.499974 2.218793-1.210983 3.117188-2.117187.898454-.910054 1.609397-1.964885 2.101562-3.140625.507784-1.218738.769531-2.507918.769531-3.84375v-9.488282c0-3.406426-.464892-6.77359-1.378906-10.015625-.886655-3.144339-2.195405-6.156367-3.886719-8.953125-3.296782-5.458499-7.965235-9.952285-13.507812-13.03125-.776817-2.338031-2.087795-4.333146-3.900391-5.859375-1.277329-1.07424-2.761853-1.882841-4.414062-2.414062-1.664009-.535131-3.472798-.765621-5.371094-.699219-3.554504.124993-5.39857-.929736-7.351563-2.046875-.968646-.550769-1.972686-1.12112-3.199218-1.578125-1.398323-.515601-2.882886-.796878-4.558594-.855469-.623991-.02295-1.208854-.02216-1.761719 0z" display="inline"/>
      <path id="path127" fill="#38cd94" d="M45.924829 17.600809c-3.870249.155144-6.10887 1.33985-8.279297 2.488282-1.289094.683596-2.507802 1.324224-4.058594 1.757812-1.789091.499998-3.378908.04687-5.0625-.429687-2.445288-.695317-5.214837-1.476509-8.949219.488281-1.503892.789096-2.718756 1.789119-3.707031 3.070312-.867196 1.117195-1.45313 2.289081-2.023437 3.421875-.988295 1.972691-1.925768 3.835982-4.2226566 5.109375-.011719.0039-.019532.01173-.035156.01953-2.1249894 1.331993-3.4453148 3.128955-3.9140625 5.339843-.2343698 1.113295-.2539002 2.331994-.050781 3.617188.1562492 1.011695.4492158 2.06643.8710937 3.140625.560702 1.432593 1.0876825 2.317001 1.3476563 2.732422.257844-.590023.5325791-1.172844.8222656-1.75.6855444-1.365843 1.4486295-2.696493 2.2988285-3.962891 1.296896-1.933594 2.78118-3.750048 4.421875-5.402344 1.636695-1.648395 3.441381-3.146482 5.359375-4.455078 1.937494-1.316396 4.00785-2.45309 6.152344-3.367187 4.464786-1.906194 9.206671-2.871094 14.097656-2.871094 4.890585 0 9.632469.96484 14.097656 2.871094 2.148394.914057 4.21485 2.046891 6.152344 3.367187 1.917994 1.304696 3.718779 2.802783 5.359375 4.455078 1.636695 1.648396 3.124978 3.46885 4.421875 5.402344 1.304696 1.953094 2.429747 4.035225 3.339844 6.199219 1.886694 4.496087 2.847656 9.28134 2.847656 14.203125v9.488281c0 2.039552.736027 3.90811 1.949219 5.355469.364529.43489.774176.827994 1.21875 1.179687.873279-.424017 2.0928-1.10721 3.328125-2.171875 1.281293-1.101494 2.261725-2.343719 2.914062-3.695312.824206-1.706991 1.121094-3.574197.890625-5.554688-.07031-.617196-.199219-1.273442-.386719-1.949218-.679687-2.421888-.355463-4.117165-.01563-5.910157.08204-.425777.164065-.863282.234375-1.3125.347599-2.160089.445318-4.718738-1.171875-8.761718-1.542992-3.855481-3.445302-5.945272-5.121094-7.789063-1.92579-2.117189-3.445318-3.7891-3.847656-7.550781-.04247-.401188-.104929-.790956-.173828-1.177734-.13244-.743477-.320896-1.454656-.548828-2.140625-.77687-2.338013-2.085832-4.335092-3.898438-5.861329-1.277394-1.074294-2.76177-1.882815-4.414062-2.414062-1.664091-.535157-3.472703-.765628-5.371094-.699219-3.554682.125-5.398473-.92968-7.351563-2.046875-.968694-.550797-1.972625-1.121097-3.199218-1.578125-1.398393-.515627-2.882802-.796879-4.558594-.855469-.624021-.02295-1.21078-.02216-1.763672 0z" display="inline"/>
      <path id="path96" fill="#c46d2a" d="M60.508813 30.432841c-1.03004.01514-1.809566.176275-2.33789.478515.648375.353006 1.282131.730594 1.908203 1.123047.391359.245324.78235.491837 1.164062.751953 1.917994 1.304696 3.71878 2.802783 5.359375 4.455078.447111.450307.880603.917801 1.304688 1.392579.359226.402165.711191.810383 1.052734 1.228515.999085-1.255305 1.541016-2.804906 1.541016-4.435547 0-1.742194-1.73441-3.230471-4.875-4.199218-1.511796-.472659-3.210961-.757809-4.660157-.792969-.157359-.0038-.309882-.0041-.457031-.002z"/>
      <path id="path94" fill="#c46d2a" d="M25.139672 25.358622c-.687497 0-1.359379.289067-1.992187.859375-.484359.437499-.95313 1.04297-1.386719 1.804687-.550778.964798-1.054691 2.191404-1.375 3.375-.24812.90917-.310114 1.475882-.30664 1.865235.221707-.158646.439151-.323112.664062-.476563.355518-.24155.719886-.470034 1.083984-.699218 1.620159-1.01982 3.317367-1.921603 5.06836-2.667969.547066-.233564 1.099138-.452947 1.654297-.658203.50458-.186557 1.012545-.358381 1.523437-.521485-.429342-.750401-1.017072-1.39751-1.738281-1.892578-.945297-.644528-2.050816-.988281-3.195313-.988281z"/>
      <path id="path97" fill="#c46d2a" d="M74.825219 50.024638c.235507.620338.457388 1.244775.658204 1.875.728353 2.285816 1.225659 4.635038 1.492187 7.027343.0593.53231.104444 1.067052.140625 1.603516.994974-.296349 1.898487-.86113 2.585938-1.662109.859337-.999997 1.335937-2.285179 1.335937-3.609375 0-1.113197-.69531-2.195347-2.066406-3.214844-1.042997-.773428-2.214851-1.312497-2.824219-1.566406-.618864-.258113-1.01275-.379412-1.322266-.453125z"/>
      <path id="path98" fill="#c46d2a" d="M87.430688 57.712138c-.03053.252489-.04715.522616-.08594.763671-.04227.27005-.09243.527484-.140625.789063-.03198.173549-.06103.353617-.09375.523437-.339839 1.792995-.664063 3.488264.01563 5.910157.09063.326631.165266.647596.228515.96289.06761.337029.121877.667447.158203.986328.02592.22277.02062.438368.0332.658204.98893-.372135 1.900827-1.156007 2.623046-2.277344.792968-1.234296 1.25-2.707054 1.25-4.03125 0-1.371096-.496095-2.460945-1.476562-3.226563-.637179-.495255-1.470595-.840421-2.511719-1.058593z"/>
      <path id="path95" fill="#c46d2a" d="M45.495141 22.858622c-2.226735 0-4.107234 1.575447-4.589843 3.691406.02941-.00007.05847-.002.08789-.002.513245 0 1.023376.01588 1.533203.03711 1.887829.0786 3.752598.30009 5.583985.667969.635464.127649 1.267086.269386 1.894531.431641-.0026-.0074-.0032-.01007-.0059-.01758-.07031-.1875-.191404-.503908-.382813-.910157-.289099-.617198-.773438-1.519533-1.410156-2.300781-.867098-1.058637-1.777351-1.597656-2.710938-1.597656Z"/>
    </g>
    <g id="g21" display="inline">
      <path id="path1" d="M85.434 82.414H23.993c-2.5938 0-5.1133-.51562-7.4805-1.5234-2.2852-.97656-4.3438-2.375-6.1094-4.1523-1.7656-1.7773-3.1484-3.8477-4.1172-6.1562-1-2.3867-1.5117-4.9219-1.5117-7.5352 0-4.9258.95703-9.707 2.8477-14.203.90625-2.1602 2.0312-4.25 3.3398-6.1992 1.2969-1.9336 2.7812-3.75 4.4219-5.4023 1.6367-1.6484 3.4414-3.1484 5.3594-4.457 1.9375-1.3164 4.0078-2.4531 6.1523-3.3672 4.4648-1.9062 9.207-2.8711 14.098-2.8711 4.8906 0 9.6328.96484 14.098 2.8711 2.1484.91406 4.2148 2.0469 6.1523 3.3672 1.918 1.3047 3.7188 2.8047 5.3594 4.457 1.6367 1.6484 3.125 3.4688 4.4219 5.4023 1.3047 1.9531 2.4297 4.0352 3.3398 6.1992 1.8867 4.4961 2.8477 9.2812 2.8477 14.203v9.4883c0 4.582 3.6953 8.3086 8.2383 8.3086 4.543 0 8.2383-3.7266 8.2383-8.3086v-9.4883c0-12.855-6.9805-24.641-18.211-30.766-.37891-.20703-.51953-.68359-.3125-1.0625.20703-.37891.68359-.51953 1.0625-.3125 5.6562 3.082 10.414 7.6367 13.762 13.18 1.6914 2.7969 3 5.8086 3.8867 8.9531.91406 3.2422 1.3789 6.6094 1.3789 10.016v9.4883c0 1.3359-.26172 2.625-.76953 3.8438-.49219 1.1758-1.2031 2.2305-2.1016 3.1406-.89844.90625-1.9492 1.6172-3.1172 2.1172-1.2188.50781-2.5039.76953-3.832.76953zM40.989 28.121c-19.102 0-34.641 15.668-34.641 34.93 0 9.8125 7.9141 17.797 17.648 17.797h56.137c-.58594-.37891-1.1289-.82422-1.6289-1.3242-.89844-.90625-1.6094-1.9648-2.1016-3.1406-.51172-1.2188-.76953-2.5117-.76953-3.8438v-9.4883c-.0039-19.262-15.543-34.93-34.645-34.93z"/>
      <g id="g15">
        <path id="path3" d="M41.641 43.934h-3.1367c-.43359 0-.78516-.35156-.78516-.78516 0-.43359.35156-.78516.78516-.78516h3.1367c.43359 0 .78516.35156.78516.78516.0039.4375-.35156.78516-.78516.78516z"/>
        <path id="path4" d="M67.789 62.91h-3.1367c-.43359 0-.78516-.35156-.78516-.78516s.35156-.78516.78516-.78516h3.1367c.43359 0 .78516.35156.78516.78516s-.35156.78516-.78516.78516z"/>
        <path id="path5" d="M32.578 66.074h-3.1367c-.43359 0-.78516-.35156-.78516-.78516 0-.43359.35156-.78516.78516-.78516h3.1367c.43359 0 .78516.35156.78516.78516 0 .43359-.35156.78516-.78516.78516z"/>
        <path id="path6" d="M19.676 72.398h-3.1367c-.43359 0-.78516-.35156-.78516-.78516 0-.43359.35156-.78516.78516-.78516h3.1367c.43359 0 .78516.35156.78516.78516 0 .4375-.35156.78516-.78516.78516z"/>
        <path id="path7" d="M21.246 47.098h-3.1367c-.43359 0-.78516-.35156-.78516-.78516s.35156-.78516.78516-.78516h3.1367c.43359 0 .78516.35156.78516.78516 0 .42969-.35156.78516-.78516.78516z"/>
        <path id="path8" d="M58.199 40.773h-6.4492c-.43359 0-.78516-.35156-.78516-.78516 0-.43359.35156-.78516.78516-.78516h6.4492c.43359 0 .78516.35156.78516.78516 0 .43359-.34766.78516-.78516.78516z"/>
        <path id="path9" d="M64.215 50.262h-6.4492c-.43359 0-.78516-.35156-.78516-.78516 0-.43359.35156-.78516.78516-.78516h6.4492c.43359 0 .78516.35156.78516.78516-.0039.42969-.35156.78516-.78516.78516Z"/>
        <path id="path10" d="M50.098 56.586h-6.4492c-.43359 0-.78516-.35156-.78516-.78516 0-.43359.35156-.78516.78516-.78516h6.4492c.43359 0 .78516.35156.78516.78516 0 .43359-.35547.78516-.78516.78516z"/>
        <path id="path11" d="M53.758 69.234h-6.4492c-.43359 0-.78516-.35156-.78516-.78516 0-.43359.35156-.78516.78516-.78516h6.4492c.43359 0 .78516.35156.78516.78516-.0039.43359-.35156.78516-.78516.78516Z"/>
        <path id="path12" d="M38.066 75.562h-6.4453c-.43359 0-.78516-.35156-.78516-.78516s.35156-.78516.78516-.78516h6.4453c.43359 0 .78516.35156.78516.78516s-.35156.78516-.78516.78516z"/>
        <path id="path13" d="M33.797 53.426h-6.4492c-.43359 0-.78516-.35156-.78516-.78516s.35156-.78516.78516-.78516h6.4492c.43359 0 .78516.35156.78516.78516 0 .42969-.35547.78516-.78516.78516z"/>
        <path id="path14" d="M18.109 59.746h-6.4531c-.43359 0-.78516-.35156-.78516-.78516 0-.43359.35156-.78516.78516-.78516h6.4492c.43359 0 .78516.35156.78516.78516 0 .43359-.34766.78516-.78125.78516z"/>
        <path id="path15" d="M65.172 78.723h-6.4492c-.43359 0-.78516-.35156-.78516-.78516s.35156-.78516.78516-.78516h6.4492c.43359 0 .78516.35156.78516.78516s-.35156.78516-.78516.78516z"/>
        <path id="path2" d="M31.008 37.609h-6.4492c-.43359 0-.78516-.35156-.78516-.78516 0-.43359.35156-.78516.78516-.78516h6.4492c.43359 0 .78516.35156.78516.78516 0 .43359-.35156.78516-.78516.78516z" display="inline"/>
      </g>
      <path id="path16" d="M78.938 79.621c-.32031 0-.62891-.20312-.74219-.52344-.14453-.40625.07031-.85547.47656-1 .01953-.0078 2.1016-.76172 4.0273-2.4297 2.5039-2.168 3.5898-4.8086 3.2344-7.8516v-.0078c-.05469-.53516-.17188-1.1016-.33594-1.6953-.77734-2.7812-.40234-4.7344-.04297-6.6289.07812-.41016.16016-.83594.22656-1.2656.3125-1.9375.40234-4.2383-1.0781-7.9297-1.4375-3.5977-3.2344-5.5703-4.8242-7.3164-.99609-1.0977-1.9375-2.1328-2.6953-3.4336-.85156-1.4648-1.3438-3.0586-1.5508-5.0117-.73047-6.8711-5.75-11.145-12.789-10.895-4 .14453-6.125-1.0742-8.1875-2.25-1.8945-1.0859-3.6836-2.1094-7.0352-2.2305-4.5703-.16406-6.8438 1.0391-9.25 2.3086-1.3047.6875-2.6523 1.3984-4.3672 1.8828-2.2109.61719-4.0938.08594-5.9102-.42969-2.3711-.67187-4.6094-1.3047-7.7891.37109-2.9023 1.5273-3.9492 3.6055-5.0547 5.8125-1.0508 2.0977-2.1367 4.2578-4.8477 5.7695-1.7422 1.0938-2.8164 2.5469-3.1953 4.3203-.44922 2.1055.14844 4.332.73047 5.8281.64844 1.6641 1.4219 2.8281 1.4297 2.8398.24219.35938.14453.84766-.21094 1.0898-.35938.24219-.84766.14453-1.0898-.21094-.035156-.05078-.86328-1.293-1.5742-3.1094-.42188-1.0742-.71484-2.1289-.87109-3.1406-.20312-1.2852-.18359-2.5039.050781-3.6172.46875-2.2109 1.7891-4.0078 3.9141-5.3398.015624-.0078.023437-.01563.035156-.01953 2.2969-1.2734 3.2344-3.1367 4.2227-5.1094.57031-1.1328 1.1562-2.3047 2.0234-3.4219.98828-1.2812 2.2031-2.2812 3.707-3.0703 3.7344-1.9648 6.5039-1.1836 8.9492-.48828 1.6836.47656 3.2734.92969 5.0625.42969 1.5508-.43359 2.7695-1.0742 4.0586-1.7578 2.4805-1.3125 5.0508-2.6719 10.043-2.4883 1.6758.05859 3.1602.33984 4.5586.85547 1.2266.45703 2.2305 1.0273 3.1992 1.5781 1.9531 1.1172 3.7969 2.1719 7.3516 2.0469 1.8984-.06641 3.707.16406 5.3711.69922 1.6523.53125 3.1367 1.3398 4.4141 2.4141 2.6211 2.207 4.2188 5.3789 4.6211 9.1797.40234 3.7617 1.9219 5.4336 3.8477 7.5508 1.6758 1.8438 3.5781 3.9336 5.1211 7.7891 1.6172 4.043 1.5195 6.6016 1.1719 8.7617-.07031.44922-.15234.88672-.23438 1.3125-.33984 1.793-.66406 3.4883.01563 5.9102.1875.67578.31641 1.332.38672 1.9492.23047 1.9805-.06641 3.8477-.89062 5.5547-.65234 1.3516-1.6328 2.5938-2.9141 3.6953-2.1484 1.8516-4.3984 2.6523-4.4922 2.6875-.10547.02344-.19141.03516-.27734.03516z"/>
      <path id="path17" d="M67.93 40.641c-.19922 0-.39453-.07031-.55078-.22266-.30859-.30078-.31641-.79688-.01563-1.1094 1.0156-1.0391 1.5703-2.4219 1.5703-3.8867 0-.77344-1.0078-1.6406-2.6914-2.3164-1.3633-.55078-3.1094-.94922-4.6719-1.0703-1.6914-.12891-2.5312.125-2.6758.26562-.24219.35156-.72656.44141-1.0859.19922-.35934-.24219-.44922-.73047-.20703-1.0898.46875-.69141 1.6016-1.0195 3.3633-.97656 1.4492.03516 3.1484.32031 4.6602.79297 3.1406.96875 4.875 2.457 4.875 4.1992 0 1.875-.71484 3.6445-2.0195 4.9805-.14453.15234-.34766.23438-.55078.23438zm-9.0273-8.3477z"/>
      <path id="path18" d="M20.914 34.402c-.26562 0-.53125-.13672-.67578-.38672-.10938-.17969-.38672-.65625.14844-2.6172.32031-1.1836.82422-2.4102 1.375-3.375.43359-.76172.90234-1.3672 1.3867-1.8047.63281-.57031 1.3047-.85938 1.9922-.85938 1.1445 0 2.25.34375 3.1953.98828.92187.63281 1.6328 1.5078 2.0625 2.5391.16406.40234-.02344.85938-.42578 1.0234-.40234.16406-.85938-.02344-1.0234-.42578-.64844-1.5586-2.1406-2.5625-3.8086-2.5625-.5 0-.98828.45703-1.3164.83984-.61328.72656-1.2227 1.8906-1.6719 3.207-.41406 1.2109-.53906 2.0898-.51953 2.3398.14844.35547.01563.77734-.32812.97656-.11719.08203-.25391.11719-.39063.11719zm.72656-1.0547zm-.05078-.125z"/>
      <path id="path19" d="M76.277 60.719c-.38281 0-.71484-.27734-.77734-.66406-.0625-.42969.22656-.82813.65625-.89453 1.8906-.28906 3.3164-1.9648 3.3164-3.9023 0-.73437-.81641-1.6406-2.2422-2.4922-1.3164-.78516-2.6133-1.2109-2.9258-1.2656-.35938.02734-.69922-.19922-.80859-.55469-.125-.41406.10938-.85156.52344-.97656.16016-.04687.52734-.16016 2.1289.50781.60937.25391 1.7812.79297 2.8242 1.5664 1.3711 1.0195 2.0664 2.1016 2.0664 3.2148 0 1.3242-.47656 2.6094-1.3359 3.6094-.85156.99219-2.0273 1.6445-3.3086 1.8398-.03516.0039-.07813.01172-.11719.01172z"/>
      <path id="path20" d="M86.715 68.512c-.375 0-.70703-.27344-.77344-.65234-.07031-.42578.21484-.83203.64062-.90625 1.8125-.30859 3.2695-2.9648 3.2695-4.9609 0-1.1211-.38672-2.4648-3.3984-2.8711-.42969-.05859-.73047-.45312-.67188-.87891.05859-.42969.45312-.73047.87891-.67188 1.4219.19141 2.4922.58594 3.2812 1.1992.98047.76562 1.4766 1.8555 1.4766 3.2266 0 1.3242-.45703 2.7969-1.25 4.0312-.89062 1.3828-2.0664 2.2656-3.3242 2.4766-.03906.0078-.08594.0078-.12891.0078z"/>
      <path id="path21" d="M49.375 29.129c-.05078 0-.10547-.0039-.15625-.01563-.35156-.07031-.60156-.36719-.625-.70703-.06641-.24219-.44922-1.25-1.0977-2.2617-.70312-1.0898-1.4297-1.7148-2-1.7148-1.6523 0-3.0352 1.3008-3.1445 2.9648-.03125.42969-.40234.76172-.83594.73047-.42969-.03125-.76172-.40234-.73047-.83594.16406-2.4805 2.2305-4.4297 4.7109-4.4297.93359 0 1.8438.53906 2.7109 1.5977.63672.78125 1.1211 1.6836 1.4102 2.3008.19141.40625.3125.72266.38281.91016.14844.41406.18359.61719.14453.82812-.07422.375-.40234.63281-.76953.63281zm-.77344-.69531zm.0039-.24609z"/>
    </g>
  </g> -->
  <circle id="path34" cx="61.5" cy="61.5" r="60" fill="none" fill-opacity="1" stroke="#fff2e9" stroke-dasharray="none" stroke-linecap="round" stroke-linejoin="round" stroke-opacity="1" stroke-width="3"/>
</svg>