<?xml version="1.0" encoding="UTF-8" standalone="no"?>
<svg
   version="1.1"
   viewBox="0 0 48.3946 90.468918"
   id="svg16"
   sodipodi:docname="burrito.svg"
   inkscape:version="1.3.2 (091e20e, 2023-11-25, custom)"
   width="48.3946"
   height="90.468918"
   xmlns:inkscape="http://www.inkscape.org/namespaces/inkscape"
   xmlns:sodipodi="http://sodipodi.sourceforge.net/DTD/sodipodi-0.dtd"
   xmlns="http://www.w3.org/2000/svg"
   xmlns:svg="http://www.w3.org/2000/svg">
  <defs
     id="defs16" />
  <sodipodi:namedview
     id="namedview16"
     pagecolor="#ffffff"
     bordercolor="#000000"
     borderopacity="0.25"
     inkscape:showpageshadow="2"
     inkscape:pageopacity="0.0"
     inkscape:pagecheckerboard="0"
     inkscape:deskcolor="#d1d1d1"
     inkscape:zoom="5.7487781"
     inkscape:cx="1.130675"
     inkscape:cy="58.186278"
     inkscape:window-width="1920"
     inkscape:window-height="1009"
     inkscape:window-x="1912"
     inkscape:window-y="-8"
     inkscape:window-maximized="1"
     inkscape:current-layer="g32" />
  <!-- <rect x="0" y="0" width="100" height="100" fill="none" stroke="red"/> -->
  <g
     id="g32"
     style="display:inline"
     transform="translate(-25.8906,-4.76547)">
    <path
       d="m 50.101562,4.765625 c -1.546895,0 -3.027372,0.5078166 -4.292968,1.4648437 C 44.867197,6.9413666 44.097657,7.8672032 43.542969,8.9375 42.570372,8.273482 41.441353,7.9140625 40.285156,7.9140625 c -1.644595,0 -3.191453,0.6992475 -4.34375,1.9648438 -1.136696,1.2499967 -1.761719,2.8984487 -1.761719,4.6523437 0,0.114217 0.0099,0.229111 0.01563,0.34375 0.04843,-0.0011 0.09595,-0.0078 0.144532,-0.0078 h 1.4375 4.136718 c 3.011658,-1e-6 5.925795,0.95319 8.660157,2.839843 0.655698,0.451226 1.29394,0.951461 1.914062,1.498047 1.477544,-1.304195 3.043791,-2.341043 4.667969,-3.064453 1.902284,-0.847653 3.87891,-1.269531 5.871094,-1.269531 h 3.382812 1.425781 c 0.05779,0 0.114317,0.0082 0.171875,0.0098 0.0059,-0.116598 0.01563,-0.233438 0.01563,-0.349609 0,-1.753895 -0.625022,-3.406247 -1.761718,-4.6523437 C 63.105422,8.61333 61.562464,7.9140625 59.917969,7.9140625 58.757872,7.9140625 57.632813,8.273442 56.660156,8.9375 56.105458,7.8633032 55.335938,6.9414066 54.394531,6.2304687 53.132735,5.2734816 51.648458,4.765625 50.101562,4.765625 Z"
       style="fill:#c46d2a;fill-opacity:1"
       id="path36"
       inkscape:label="top lettuce" />
    <path
       d="m 34.339844,14.867188 c -1.85938,0 -3.605483,0.792984 -4.917969,2.230468 -1.285136,1.406285 -1.992186,3.265616 -2.003906,5.246094 C 26.4063,31.487649 25.890625,40.793101 25.890625,50 c 0,9.206899 0.511755,18.511851 1.527344,27.65625 0.0156,1.976578 0.72272,3.839909 2.003906,5.246094 1.312486,1.437514 3.058589,2.230468 4.917969,2.230468 h 5.574218 c 3.011767,0 5.925787,-0.953177 8.660157,-2.847656 0.654512,-0.448757 1.291473,-0.945944 1.910156,-1.490234 1.47863,1.303685 3.046328,2.34434 4.671875,3.068359 1.898391,0.839806 3.878904,1.269531 5.871094,1.269531 h 4.808593 c 1.859391,10e-7 3.605476,-0.792969 4.917969,-2.226562 1.285144,-1.406293 1.992187,-3.265604 2.003906,-5.246094 1.011675,-9.143954 1.527344,-18.449296 1.527344,-27.65625 0,-9.206954 -0.511749,-18.511795 -1.527344,-27.65625 -0.0156,-1.97659 -0.722712,-3.839901 -2.003906,-5.246094 -1.312493,-1.437522 -3.058578,-2.230468 -4.917969,-2.230468 h -4.808593 c -1.99219,0 -3.968804,0.421875 -5.871094,1.269531 -1.624183,0.723412 -3.190421,1.760254 -4.667969,3.064453 -0.620124,-0.546588 -1.258362,-1.04682 -1.914062,-1.498047 -2.73437,-1.886659 -5.64849,-2.839843 -8.660157,-2.839843 z"
       style="display:inline;fill:#efe489;fill-opacity:1"
       id="path32"
       inkscape:label="wrap" />
    <path
       d="m 50.484375,80.794922 c -0.618681,0.544288 -1.255646,1.041479 -1.910156,1.490234 -2.734362,1.894474 -5.648399,2.847656 -8.660157,2.847656 h -4.152343 -1.421875 c -0.05382,0 -0.10653,-0.0065 -0.160157,-0.0078 -0.0057,0.114644 -0.01563,0.229522 -0.01563,0.34375 0,1.753895 0.625023,3.406247 1.761719,4.652344 1.156297,1.265576 2.699255,1.964843 4.34375,1.964843 1.160097,0 2.285156,-0.359379 3.257813,-1.023437 0.554698,1.074197 1.324218,1.996093 2.265625,2.707031 1.261796,0.956987 2.746073,1.464844 4.292968,1.464844 1.546796,0 3.031248,-0.503907 4.277344,-1.464844 0.941397,-0.710898 1.710937,-1.636734 2.265625,-2.707031 0.972597,0.664018 2.101616,1.023437 3.257813,1.023437 1.644595,0 3.191453,-0.699247 4.34375,-1.964843 1.136696,-1.249997 1.761718,-2.898449 1.761718,-4.652344 0,-0.114217 -0.0099,-0.229111 -0.01563,-0.34375 -0.04713,0.001 -0.09335,0.0078 -0.140625,0.0078 h -1.441406 -3.367187 c -1.992184,0 -3.972709,-0.429727 -5.871094,-1.269531 -1.625542,-0.724017 -3.193249,-1.764678 -4.671875,-3.068359 z"
       style="fill:#c46d2a;fill-opacity:1"
       id="path34"
       inkscape:label="bottom lettuce" />
  </g>
  <g
     id="g16"
     style="display:inline"
     transform="translate(-25.8906,-4.76547)">
    <path
       d="m 65.121,16.445 c -0.04687,0 -0.09766,-0.0039 -0.14453,-0.01562 -0.42578,-0.07813 -0.70703,-0.48828 -0.62891,-0.91406 0.05859,-0.32422 0.09375,-0.65234 0.09375,-0.98047 0,-2.7852 -2.0352,-5.0469 -4.5352,-5.0469 -1.1016,0 -2.1719,0.45312 -3.0078,1.2773 -0.19141,0.1875 -0.46094,0.26562 -0.72266,0.20703 -0.26172,-0.05859 -0.47266,-0.24219 -0.5625,-0.49609 -0.91406,-2.5117 -3.0859,-4.1328 -5.5195,-4.1328 -2.4375,0 -4.6055,1.6211 -5.5195,4.1328 -0.09375,0.24609 -0.30469,0.4375 -0.5625,0.49609 -0.26172,0.05859 -0.53516,-0.01953 -0.72266,-0.20703 -0.83594,-0.82422 -1.9062,-1.2773 -3.0078,-1.2773 -2.5039,0 -4.5352,2.2656 -4.5352,5.0469 0,0.32422 0.03125,0.65234 0.09375,0.98047 0.07813,0.42578 -0.20312,0.83594 -0.62891,0.91406 -0.42578,0.07812 -0.83594,-0.20313 -0.91406,-0.62891 -0.07813,-0.42188 -0.11719,-0.84766 -0.11719,-1.2695 0,-1.7539 0.625,-3.4023 1.7617,-4.6523 1.1523,-1.2656 2.6992,-1.9648 4.3438,-1.9648 1.1562,0 2.2852,0.35938 3.2578,1.0234 0.55469,-1.0703 1.3242,-1.9961 2.2656,-2.707 1.2656,-0.95703 2.7461,-1.4648 4.293,-1.4648 1.5469,0 3.0312,0.50781 4.293,1.4648 0.94141,0.71094 1.7109,1.6328 2.2656,2.707 0.97266,-0.66406 2.0977,-1.0234 3.2578,-1.0234 1.6445,0 3.1875,0.69922 4.3438,1.9648 1.1367,1.2461 1.7617,2.8984 1.7617,4.6523 0,0.42188 -0.03906,0.84766 -0.11719,1.2695 -0.08984,0.37891 -0.41797,0.64453 -0.78516,0.64453 z"
       id="path1" />
    <path
       d="m 50.086,95.234 c -1.5469,0 -3.0312,-0.50781 -4.293,-1.4648 -0.94141,-0.71094 -1.7109,-1.6328 -2.2656,-2.707 -0.97266,0.66406 -2.0977,1.0234 -3.2578,1.0234 -1.6445,0 -3.1875,-0.69922 -4.3438,-1.9648 -1.1367,-1.2461 -1.7617,-2.8984 -1.7617,-4.6523 0,-0.42188 0.03906,-0.84766 0.11719,-1.2695 0.07813,-0.42578 0.48828,-0.70703 0.91406,-0.62891 0.42578,0.07813 0.70703,0.48828 0.62891,0.91406 -0.05859,0.32422 -0.09375,0.65234 -0.09375,0.98047 0,2.7852 2.0352,5.0469 4.5352,5.0469 1.1016,0 2.1719,-0.45312 3.0078,-1.2773 0.19141,-0.1875 0.46094,-0.26562 0.72266,-0.20703 0.26172,0.05859 0.47266,0.24219 0.5625,0.49609 0.91406,2.5117 3.0859,4.1328 5.5195,4.1328 2.4375,0 4.6055,-1.6211 5.5195,-4.1328 0.09375,-0.24609 0.30469,-0.4375 0.5625,-0.49609 0.26172,-0.05859 0.53516,0.01953 0.72266,0.20703 0.83594,0.82422 1.9062,1.2773 3.0078,1.2773 2.5039,0 4.5352,-2.2656 4.5352,-5.0469 0,-0.32422 -0.03125,-0.65234 -0.09375,-0.98047 -0.07813,-0.42578 0.20312,-0.83594 0.62891,-0.91406 0.42578,-0.07812 0.83594,0.20313 0.91406,0.62891 0.07813,0.42188 0.11719,0.84766 0.11719,1.2695 0,1.7539 -0.625,3.4023 -1.7617,4.6523 -1.1523,1.2656 -2.6992,1.9648 -4.3438,1.9648 -1.1562,0 -2.2852,-0.35938 -3.2578,-1.0234 -0.55469,1.0703 -1.3242,1.9961 -2.2656,2.707 -1.2461,0.96094 -2.7305,1.4648 -4.2773,1.4648 z"
       id="path2" />
    <path
       d="m 39.914,85.133 h -5.5742 c -1.8594,0 -3.6055,-0.79297 -4.918,-2.2305 -1.2812,-1.4062 -1.9883,-3.2695 -2.0039,-5.2461 -1.0156,-9.1445 -1.5273,-18.449 -1.5273,-27.656 0,-9.207 0.51562,-18.512 1.5273,-27.656 0.01172,-1.9805 0.71875,-3.8398 2.0039,-5.2461 1.3125,-1.4375 3.0586,-2.2305 4.918,-2.2305 h 5.5742 c 3.0117,0 5.9258,0.95312 8.6602,2.8398 2.6055,1.793 4.9375,4.3477 6.9375,7.5938 1.9805,3.2188 3.5312,6.9648 4.6172,11.129 1.1172,4.3008 1.6836,8.8633 1.6836,13.566 0,4.7027 -0.56641,9.2656 -1.6836,13.566 -1.082,4.1641 -2.6367,7.9102 -4.6172,11.129 -1.9961,3.2461 -4.3281,5.8047 -6.9375,7.5938 -2.7344,1.8945 -5.6484,2.8477 -8.6602,2.8477 z M 34.3398,16.445 c -1.4141,0 -2.75,0.61328 -3.7578,1.7188 -1.0273,1.1289 -1.5938,2.6328 -1.5938,4.2344 0,0.03125 -0.0039,0.05469 -0.0039,0.08594 -1.0117,9.1016 -1.5234,18.359 -1.5234,27.523 0,9.1602 0.51562,18.422 1.5234,27.523 0.0039,0.03125 0.0039,0.05859 0.0039,0.08594 0,3.2812 2.3984,5.9492 5.3516,5.9492 h 5.5742 c 5.3594,0 10.422,-3.4375 14.262,-9.6875 3.9141,-6.3672 6.0703,-14.848 6.0703,-23.875 0,-9.027 -2.1523,-17.512 -6.0703,-23.875 -3.8398,-6.25 -8.9062,-9.6875 -14.262,-9.6875 h -5.5742 z"
       id="path3" />
    <path
       d="m 65.836,85.133 h -4.8086 c -1.9922,0 -3.9727,-0.42969 -5.8711,-1.2695 -1.8242,-0.8125 -3.582,-2.0039 -5.2148,-3.543 -0.3125,-0.29687 -0.32812,-0.79297 -0.03516,-1.1094 0.29688,-0.3125 0.79297,-0.32813 1.1094,-0.03516 3.0469,2.8711 6.5117,4.3867 10.016,4.3867 h 4.8086 c 1.4141,0 2.75,-0.61328 3.7578,-1.7188 1.0273,-1.1289 1.5938,-2.6328 1.5938,-4.2344 0,-0.03125 0.0039,-0.05859 0.0039,-0.08594 1.0117,-9.1016 1.5234,-18.359 1.5234,-27.523 0,-9.1602 -0.51172,-18.422 -1.5234,-27.523 -0.0039,-0.03125 -0.0039,-0.05469 -0.0039,-0.08594 0,-3.2812 -2.3984,-5.9492 -5.3516,-5.9492 h -4.8086 c -3.5039,0 -6.9648,1.5195 -10.016,4.3867 -0.3125,0.29688 -0.8125,0.28125 -1.1094,-0.03516 -0.29688,-0.3125 -0.28125,-0.8125 0.03516,-1.1094 1.6328,-1.543 3.3906,-2.7305 5.2148,-3.543 1.9023,-0.84766 3.8789,-1.2695 5.8711,-1.2695 h 4.8086 c 1.8594,0 3.6055,0.79297 4.918,2.2305 1.2812,1.4062 1.9883,3.2695 2.0039,5.2461 1.0156,9.1445 1.5273,18.449 1.5273,27.656 0,9.207 -0.51562,18.512 -1.5273,27.656 -0.01172,1.9805 -0.71875,3.8398 -2.0039,5.2461 -1.3125,1.4336 -3.0586,2.2266 -4.918,2.2266 z"
       id="path4" />
    <path
       d="m 42.926,25.336 h -7.5625 c -0.43359,0 -0.78516,-0.35156 -0.78516,-0.78516 0,-0.43359 0.35156,-0.78516 0.78516,-0.78516 h 7.5625 c 0.43359,0 0.78516,0.35156 0.78516,0.78516 0,0.42969 -0.34766,0.78516 -0.78516,0.78516 z"
       id="path5" />
    <path
       d="m 52.336,33.816 h -3.6797 c -0.43359,0 -0.78516,-0.35156 -0.78516,-0.78516 0,-0.4336 0.35156,-0.78516 0.78516,-0.78516 h 3.6797 c 0.43359,0 0.78516,0.35156 0.78516,0.78516 0,0.4336 -0.35156,0.78516 -0.78516,0.78516 z"
       id="path6" />
    <path
       d="m 30.863,33.816 h -3.6133 c -0.43359,0 -0.78516,-0.35156 -0.78516,-0.78516 0,-0.4336 0.35156,-0.78516 0.78516,-0.78516 h 3.6133 c 0.43359,0 0.78516,0.35156 0.78516,0.78516 0,0.4336 -0.35156,0.78516 -0.78516,0.78516 z"
       id="path7" />
    <path
       d="m 35.566,63.516 h -3.6797 c -0.43359,0 -0.78516,-0.35156 -0.78516,-0.78516 0,-0.43359 0.35156,-0.78516 0.78516,-0.78516 h 3.6797 c 0.43359,0 0.78516,0.35156 0.78516,0.78516 0,0.43359 -0.35547,0.78516 -0.78516,0.78516 z"
       id="path8" />
    <path
       d="m 53.973,63.516 h -3.6797 c -0.43359,0 -0.78516,-0.35156 -0.78516,-0.78516 0,-0.43359 0.35156,-0.78516 0.78516,-0.78516 h 3.6797 c 0.43359,0 0.78516,0.35156 0.78516,0.78516 0,0.43359 -0.35547,0.78516 -0.78516,0.78516 z"
       id="path9" />
    <path
       d="m 72.777,31.699 h -8.5781 c -0.43359,0 -0.78516,-0.35156 -0.78516,-0.78516 0,-0.43359 0.35156,-0.78516 0.78516,-0.78516 h 8.5781 c 0.43359,0 0.78516,0.35156 0.78516,0.78516 0,0.43359 -0.35156,0.78516 -0.78516,0.78516 z"
       id="path10" />
    <path
       d="m 73.414,44.426 h -4.0039 c -0.43359,0 -0.78516,-0.35156 -0.78516,-0.78516 0,-0.4336 0.35156,-0.78516 0.78516,-0.78516 h 4.0039 c 0.43359,0 0.78516,0.35156 0.78516,0.78516 0.0039,0.43359 -0.34766,0.78516 -0.78516,0.78516 z"
       id="path11" />
    <path
       d="m 73.41,57.152 h -3.9961 c -0.43359,0 -0.78516,-0.35156 -0.78516,-0.78516 0,-0.43359 0.35156,-0.78516 0.78516,-0.78516 h 4 c 0.43359,0 0.78516,0.35156 0.78516,0.78516 0,0.43359 -0.35156,0.78516 -0.78906,0.78516 z"
       id="path12" />
    <path
       d="m 61.027,50.789 h -6.3359 c -0.43359,0 -0.78516,-0.35156 -0.78516,-0.78516 0,-0.4336 0.35156,-0.78516 0.78516,-0.78516 h 6.3359 c 0.43359,0 0.78516,0.35156 0.78516,0.78516 -0.0039,0.43359 -0.35547,0.78516 -0.78516,0.78516 z"
       id="path13" />
    <path
       d="m 72.762,69.879 h -7.6445 c -0.43359,0 -0.78516,-0.35156 -0.78516,-0.78516 0,-0.4336 0.35156,-0.78516 0.78516,-0.78516 l 7.6445,0.0039 c 0.43359,0 0.78516,0.35156 0.78516,0.78516 -0.0039,0.42969 -0.35156,0.78125 -0.78516,0.78125 z"
       id="path14" />
    <path
       d="m 45.074,76.242 h -7.5625 c -0.43359,0 -0.78516,-0.35156 -0.78516,-0.78516 0,-0.43359 0.35156,-0.78516 0.78516,-0.78516 h 7.5625 c 0.43359,0 0.78516,0.35156 0.78516,0.78516 0,0.43359 -0.35156,0.78516 -0.78516,0.78516 z"
       id="path15" />
    <path
       d="m 43.129,46.547 h -7.5625 c -0.43359,0 -0.78516,-0.35156 -0.78516,-0.78516 0,-0.43359 0.35156,-0.78516 0.78516,-0.78516 h 7.5625 c 0.43359,0 0.78516,0.35156 0.78516,0.78516 0,0.43359 -0.34766,0.78516 -0.78516,0.78516 z"
       id="path16" />
  </g>
</svg>
