<?xml version="1.0" encoding="UTF-8" standalone="no"?>
<svg
   version="1.1"
   viewBox="0 0 90.482468 64.830544"
   id="svg21"
   sodipodi:docname="taco.svg"
   inkscape:version="1.3.2 (091e20e, 2023-11-25, custom)"
   width="90.482468"
   height="64.830544"
   xmlns:inkscape="http://www.inkscape.org/namespaces/inkscape"
   xmlns:sodipodi="http://sodipodi.sourceforge.net/DTD/sodipodi-0.dtd"
   xmlns="http://www.w3.org/2000/svg"
   xmlns:svg="http://www.w3.org/2000/svg">
  <defs
     id="defs21" />
  <sodipodi:namedview
     id="namedview21"
     pagecolor="#ffffff"
     bordercolor="#000000"
     borderopacity="0.25"
     inkscape:showpageshadow="2"
     inkscape:pageopacity="0.0"
     inkscape:pagecheckerboard="0"
     inkscape:deskcolor="#d1d1d1"
     inkscape:zoom="8"
     inkscape:cx="29.625"
     inkscape:cy="36.1875"
     inkscape:window-width="1536"
     inkscape:window-height="889"
     inkscape:window-x="-8"
     inkscape:window-y="229"
     inkscape:window-maximized="1"
     inkscape:current-layer="g93" />
  <!-- <rect x="0" y="0" width="100" height="100" fill="none" stroke="red"/> -->
  <g
     id="g93"
     style="display:inline"
     transform="translate(-4.7734381,-17.583889)">
    <!-- shell -->
    <!-- Lettuce -->
    <path
       d="m 45.925781,17.601562 c -3.870055,0.155136 -6.110932,1.339907 -8.28125,2.488282 -1.289029,0.683562 -2.507879,1.324246 -4.058594,1.757812 -1.789001,0.499973 -3.378992,0.04685 -5.0625,-0.429687 -2.445165,-0.695282 -5.215024,-1.476411 -8.949218,0.488281 -1.503818,0.789057 -2.718806,1.789183 -3.707031,3.070312 -0.867153,1.117139 -1.453159,2.289138 -2.023438,3.421875 -0.988246,1.972592 -1.925883,3.836046 -4.2226562,5.109375 -0.011718,0.0039 -0.019533,0.01172 -0.035156,0.01953 -2.1248831,1.331926 -3.4453383,3.129065 -3.9140625,5.339843 -0.2343581,1.113239 -0.2538901,2.332059 -0.050781,3.617188 0.1562415,1.011644 0.449237,2.066484 0.8710938,3.140625 0.5599562,1.430688 1.0870737,2.313913 1.3476562,2.730469 -0.071391,0.16334 -0.1498709,0.324096 -0.21875,0.488281 -1.8905735,4.495771 -2.8476562,9.277576 -2.8476562,14.203125 0,2.613167 0.5117697,5.148578 1.5117187,7.535156 0.9687506,2.308383 2.3516776,4.379041 4.1171882,6.15625 1.76551,1.77721 3.824291,3.175834 6.109375,4.152344 2.367079,1.007729 4.886801,1.523437 7.480468,1.523437 h 61.441407 0.002 c 1.328032,0 2.613293,-0.261747 3.832031,-0.769531 1.167941,-0.499974 2.218793,-1.210983 3.117188,-2.117187 0.898454,-0.910054 1.609397,-1.964885 2.101562,-3.140625 0.507784,-1.218738 0.769531,-2.507918 0.769531,-3.84375 v -9.488282 c 0,-3.406426 -0.464892,-6.77359 -1.378906,-10.015625 C 92.990346,49.894721 91.681596,46.882693 89.990282,44.085935 86.6935,38.627436 82.025047,34.13365 76.48247,31.054685 75.705653,28.716654 74.394675,26.721539 72.582079,25.19531 71.30475,24.12107 69.820226,23.312469 68.168017,22.781248 c -1.664009,-0.535131 -3.472798,-0.765621 -5.371094,-0.699219 -3.554504,0.124993 -5.39857,-0.929736 -7.351563,-2.046875 -0.968646,-0.550769 -1.972686,-1.12112 -3.199218,-1.578125 -1.398323,-0.515601 -2.882886,-0.796878 -4.558594,-0.855469 -0.623991,-0.02295 -1.208854,-0.02216 -1.761719,0 z"
       id="path43"
       inkscape:label="fill"
       style="display:inline;fill:#efe489;fill-opacity:1" />
    <path
       d="m 45.924829,17.600809 c -3.870249,0.155144 -6.10887,1.33985 -8.279297,2.488282 -1.289094,0.683596 -2.507802,1.324224 -4.058594,1.757812 -1.789091,0.499998 -3.378908,0.04687 -5.0625,-0.429687 -2.445288,-0.695317 -5.214837,-1.476509 -8.949219,0.488281 -1.503892,0.789096 -2.718756,1.789119 -3.707031,3.070312 -0.867196,1.117195 -1.45313,2.289081 -2.023437,3.421875 -0.988295,1.972691 -1.925768,3.835982 -4.2226566,5.109375 -0.011719,0.0039 -0.019532,0.01173 -0.035156,0.01953 -2.1249894,1.331993 -3.4453148,3.128955 -3.9140625,5.339843 -0.2343698,1.113295 -0.2539002,2.331994 -0.050781,3.617188 0.1562492,1.011695 0.4492158,2.06643 0.8710937,3.140625 0.560702,1.432593 1.0876825,2.317001 1.3476563,2.732422 0.257844,-0.590023 0.5325791,-1.172844 0.8222656,-1.75 0.6855444,-1.365843 1.4486295,-2.696493 2.2988285,-3.962891 1.296896,-1.933594 2.78118,-3.750048 4.421875,-5.402344 1.636695,-1.648395 3.441381,-3.146482 5.359375,-4.455078 1.937494,-1.316396 4.00785,-2.45309 6.152344,-3.367187 4.464786,-1.906194 9.206671,-2.871094 14.097656,-2.871094 4.890585,0 9.632469,0.96484 14.097656,2.871094 2.148394,0.914057 4.21485,2.046891 6.152344,3.367187 1.917994,1.304696 3.718779,2.802783 5.359375,4.455078 1.636695,1.648396 3.124978,3.46885 4.421875,5.402344 1.304696,1.953094 2.429747,4.035225 3.339844,6.199219 1.886694,4.496087 2.847656,9.28134 2.847656,14.203125 v 9.488281 c 0,2.039552 0.736027,3.90811 1.949219,5.355469 0.364529,0.43489 0.774176,0.827994 1.21875,1.179687 0.873279,-0.424017 2.0928,-1.10721 3.328125,-2.171875 1.281293,-1.101494 2.261725,-2.343719 2.914062,-3.695312 0.824206,-1.706991 1.121094,-3.574197 0.890625,-5.554688 -0.07031,-0.617196 -0.199219,-1.273442 -0.386719,-1.949218 -0.679687,-2.421888 -0.355463,-4.117165 -0.01563,-5.910157 0.08204,-0.425777 0.164065,-0.863282 0.234375,-1.3125 0.347599,-2.160089 0.445318,-4.718738 -1.171875,-8.761718 -1.542992,-3.855481 -3.445302,-5.945272 -5.121094,-7.789063 -1.92579,-2.117189 -3.445318,-3.7891 -3.847656,-7.550781 -0.04247,-0.401188 -0.104929,-0.790956 -0.173828,-1.177734 -0.13244,-0.743477 -0.320896,-1.454656 -0.548828,-2.140625 -0.77687,-2.338013 -2.085832,-4.335092 -3.898438,-5.861329 -1.277394,-1.074294 -2.76177,-1.882815 -4.414062,-2.414062 -1.664091,-0.535157 -3.472703,-0.765628 -5.371094,-0.699219 -3.554682,0.125 -5.398473,-0.92968 -7.351563,-2.046875 -0.968694,-0.550797 -1.972625,-1.121097 -3.199218,-1.578125 -1.398393,-0.515627 -2.882802,-0.796879 -4.558594,-0.855469 -0.624021,-0.02295 -1.21078,-0.02216 -1.763672,0 z"
       style="display:inline;fill:#38cd94;fill-opacity:1"
       id="path127" />
    <path
       d="m 60.508813,30.432841 c -1.03004,0.01514 -1.809566,0.176275 -2.33789,0.478515 0.648375,0.353006 1.282131,0.730594 1.908203,1.123047 0.391359,0.245324 0.78235,0.491837 1.164062,0.751953 1.917994,1.304696 3.71878,2.802783 5.359375,4.455078 0.447111,0.450307 0.880603,0.917801 1.304688,1.392579 0.359226,0.402165 0.711191,0.810383 1.052734,1.228515 0.999085,-1.255305 1.541016,-2.804906 1.541016,-4.435547 0,-1.742194 -1.73441,-3.230471 -4.875,-4.199218 -1.511796,-0.472659 -3.210961,-0.757809 -4.660157,-0.792969 -0.157359,-0.0038 -0.309882,-0.0041 -0.457031,-0.002 z"
       style="fill:#c46d2a;fill-opacity:1"
       id="path96" />
    <path
       d="m 25.139672,25.358622 c -0.687497,0 -1.359379,0.289067 -1.992187,0.859375 -0.484359,0.437499 -0.95313,1.04297 -1.386719,1.804687 -0.550778,0.964798 -1.054691,2.191404 -1.375,3.375 -0.24812,0.90917 -0.310114,1.475882 -0.30664,1.865235 0.221707,-0.158646 0.439151,-0.323112 0.664062,-0.476563 0.355518,-0.24155 0.719886,-0.470034 1.083984,-0.699218 1.620159,-1.01982 3.317367,-1.921603 5.06836,-2.667969 0.547066,-0.233564 1.099138,-0.452947 1.654297,-0.658203 0.50458,-0.186557 1.012545,-0.358381 1.523437,-0.521485 -0.429342,-0.750401 -1.017072,-1.39751 -1.738281,-1.892578 -0.945297,-0.644528 -2.050816,-0.988281 -3.195313,-0.988281 z"
       style="fill:#c46d2a;fill-opacity:1"
       id="path94" />
    <path
       d="m 74.825219,50.024638 c 0.235507,0.620338 0.457388,1.244775 0.658204,1.875 0.728353,2.285816 1.225659,4.635038 1.492187,7.027343 0.0593,0.53231 0.104444,1.067052 0.140625,1.603516 0.994974,-0.296349 1.898487,-0.86113 2.585938,-1.662109 0.859337,-0.999997 1.335937,-2.285179 1.335937,-3.609375 0,-1.113197 -0.69531,-2.195347 -2.066406,-3.214844 -1.042997,-0.773428 -2.214851,-1.312497 -2.824219,-1.566406 -0.618864,-0.258113 -1.01275,-0.379412 -1.322266,-0.453125 z"
       style="fill:#c46d2a;fill-opacity:1"
       id="path97" />
    <path
       d="m 87.430688,57.712138 c -0.03053,0.252489 -0.04715,0.522616 -0.08594,0.763671 -0.04227,0.27005 -0.09243,0.527484 -0.140625,0.789063 -0.03198,0.173549 -0.06103,0.353617 -0.09375,0.523437 -0.339839,1.792995 -0.664063,3.488264 0.01563,5.910157 0.09063,0.326631 0.165266,0.647596 0.228515,0.96289 0.06761,0.337029 0.121877,0.667447 0.158203,0.986328 0.02592,0.22277 0.02062,0.438368 0.0332,0.658204 0.98893,-0.372135 1.900827,-1.156007 2.623046,-2.277344 0.792968,-1.234296 1.25,-2.707054 1.25,-4.03125 0,-1.371096 -0.496095,-2.460945 -1.476562,-3.226563 -0.637179,-0.495255 -1.470595,-0.840421 -2.511719,-1.058593 z"
       style="fill:#c46d2a;fill-opacity:1"
       id="path98" />
    <path
       d="m 45.495141,22.858622 c -2.226735,0 -4.107234,1.575447 -4.589843,3.691406 0.02941,-7e-5 0.05847,-0.002 0.08789,-0.002 0.513245,0 1.023376,0.01588 1.533203,0.03711 1.887829,0.0786 3.752598,0.30009 5.583985,0.667969 0.635464,0.127649 1.267086,0.269386 1.894531,0.431641 -0.0026,-0.0074 -0.0032,-0.01007 -0.0059,-0.01758 -0.07031,-0.1875 -0.191404,-0.503908 -0.382813,-0.910157 C 49.327095,26.139813 48.842756,25.237478 48.206038,24.45623 47.33894,23.397593 46.428687,22.858574 45.4951,22.858574 Z"
       style="fill:#c46d2a;fill-opacity:1"
       id="path95" />
  </g>
  <g
     id="g21"
     style="display:inline"
     transform="translate(-4.7734381,-17.583889)"
     sodipodi:insensitive="true">
    <!-- shell -->
    <path
       d="M 85.434,82.414 H 23.993 c -2.5938,0 -5.1133,-0.51562 -7.4805,-1.5234 -2.2852,-0.97656 -4.3438,-2.375 -6.1094,-4.1523 -1.7656,-1.7773 -3.1484,-3.8477 -4.1172,-6.1562 -1,-2.3867 -1.5117,-4.9219 -1.5117,-7.5352 0,-4.9258 0.95703,-9.707 2.8477,-14.203 0.90625,-2.1602 2.0312,-4.25 3.3398,-6.1992 1.2969,-1.9336 2.7812,-3.75 4.4219,-5.4023 1.6367,-1.6484 3.4414,-3.1484 5.3594,-4.457 1.9375,-1.3164 4.0078,-2.4531 6.1523,-3.3672 4.4648,-1.9062 9.207,-2.8711 14.098,-2.8711 4.8906,0 9.6328,0.96484 14.098,2.8711 2.1484,0.91406 4.2148,2.0469 6.1523,3.3672 1.918,1.3047 3.7188,2.8047 5.3594,4.457 1.6367,1.6484 3.125,3.4688 4.4219,5.4023 1.3047,1.9531 2.4297,4.0352 3.3398,6.1992 1.8867,4.4961 2.8477,9.2812 2.8477,14.203 v 9.4883 c 0,4.582 3.6953,8.3086 8.2383,8.3086 4.543,0 8.2383,-3.7266 8.2383,-8.3086 v -9.4883 c 0,-12.855 -6.9805,-24.641 -18.211,-30.766 -0.37891,-0.20703 -0.51953,-0.68359 -0.3125,-1.0625 0.20703,-0.37891 0.68359,-0.51953 1.0625,-0.3125 5.6562,3.082 10.414,7.6367 13.762,13.18 1.6914,2.7969 3,5.8086 3.8867,8.9531 0.91406,3.2422 1.3789,6.6094 1.3789,10.016 v 9.4883 c 0,1.3359 -0.26172,2.625 -0.76953,3.8438 -0.49219,1.1758 -1.2031,2.2305 -2.1016,3.1406 -0.89844,0.90625 -1.9492,1.6172 -3.1172,2.1172 -1.2188,0.50781 -2.5039,0.76953 -3.832,0.76953 z M 40.989,28.121 c -19.102,0 -34.641,15.668 -34.641,34.93 0,9.8125 7.9141,17.797 17.648,17.797 H 80.133 C 79.54706,80.46909 79.0041,80.02378 78.5041,79.5238 77.60566,78.61755 76.8947,77.559 76.4025,76.3832 75.89078,75.1644 75.63297,73.8715 75.63297,72.5394 v -9.4883 c -0.0039,-19.262 -15.543,-34.93 -34.645,-34.93 z"
       id="path1" />
    <g
       id="g15"
       inkscape:label="lines">
      <path
         d="m 41.641,43.934 h -3.1367 c -0.43359,0 -0.78516,-0.35156 -0.78516,-0.78516 0,-0.43359 0.35156,-0.78516 0.78516,-0.78516 h 3.1367 c 0.43359,0 0.78516,0.35156 0.78516,0.78516 0.0039,0.4375 -0.35156,0.78516 -0.78516,0.78516 z"
         id="path3" />
      <path
         d="m 67.789,62.91 h -3.1367 c -0.43359,0 -0.78516,-0.35156 -0.78516,-0.78516 0,-0.4336 0.35156,-0.78516 0.78516,-0.78516 h 3.1367 c 0.43359,0 0.78516,0.35156 0.78516,0.78516 0,0.4336 -0.35156,0.78516 -0.78516,0.78516 z"
         id="path4" />
      <path
         d="m 32.578,66.074 h -3.1367 c -0.43359,0 -0.78516,-0.35156 -0.78516,-0.78516 0,-0.43359 0.35156,-0.78516 0.78516,-0.78516 h 3.1367 c 0.43359,0 0.78516,0.35156 0.78516,0.78516 0,0.43359 -0.35156,0.78516 -0.78516,0.78516 z"
         id="path5" />
      <path
         d="m 19.676,72.398 h -3.1367 c -0.43359,0 -0.78516,-0.35156 -0.78516,-0.78516 0,-0.43359 0.35156,-0.78516 0.78516,-0.78516 h 3.1367 c 0.43359,0 0.78516,0.35156 0.78516,0.78516 0,0.4375 -0.35156,0.78516 -0.78516,0.78516 z"
         id="path6" />
      <path
         d="m 21.246,47.098 h -3.1367 c -0.43359,0 -0.78516,-0.35156 -0.78516,-0.78516 0,-0.4336 0.35156,-0.78516 0.78516,-0.78516 h 3.1367 c 0.43359,0 0.78516,0.35156 0.78516,0.78516 0,0.42969 -0.35156,0.78516 -0.78516,0.78516 z"
         id="path7" />
      <path
         d="m 58.199,40.773 h -6.4492 c -0.43359,0 -0.78516,-0.35156 -0.78516,-0.78516 0,-0.43359 0.35156,-0.78516 0.78516,-0.78516 h 6.4492 c 0.43359,0 0.78516,0.35156 0.78516,0.78516 0,0.43359 -0.34766,0.78516 -0.78516,0.78516 z"
         id="path8" />
      <path
         d="m 64.215,50.262 h -6.4492 c -0.43359,0 -0.78516,-0.35156 -0.78516,-0.78516 0,-0.43359 0.35156,-0.78516 0.78516,-0.78516 h 6.4492 c 0.43359,0 0.78516,0.35156 0.78516,0.78516 C 64.99626,49.90653 64.6486,50.262 64.215,50.262 Z"
         id="path9" />
      <path
         d="m 50.098,56.586 h -6.4492 c -0.43359,0 -0.78516,-0.35156 -0.78516,-0.78516 0,-0.43359 0.35156,-0.78516 0.78516,-0.78516 h 6.4492 c 0.43359,0 0.78516,0.35156 0.78516,0.78516 0,0.43359 -0.35547,0.78516 -0.78516,0.78516 z"
         id="path10" />
      <path
         d="m 53.758,69.234 h -6.4492 c -0.43359,0 -0.78516,-0.35156 -0.78516,-0.78516 0,-0.43359 0.35156,-0.78516 0.78516,-0.78516 h 6.4492 c 0.43359,0 0.78516,0.35156 0.78516,0.78516 C 54.53926,68.88243 54.1916,69.234 53.758,69.234 Z"
         id="path11" />
      <path
         d="m 38.066,75.562 h -6.4453 c -0.43359,0 -0.78516,-0.35156 -0.78516,-0.78516 0,-0.4336 0.35156,-0.78516 0.78516,-0.78516 h 6.4453 c 0.43359,0 0.78516,0.35156 0.78516,0.78516 0,0.4336 -0.35156,0.78516 -0.78516,0.78516 z"
         id="path12" />
      <path
         d="m 33.797,53.426 h -6.4492 c -0.43359,0 -0.78516,-0.35156 -0.78516,-0.78516 0,-0.4336 0.35156,-0.78516 0.78516,-0.78516 h 6.4492 c 0.43359,0 0.78516,0.35156 0.78516,0.78516 0,0.42969 -0.35547,0.78516 -0.78516,0.78516 z"
         id="path13" />
      <path
         d="m 18.109,59.746 h -6.4531 c -0.43359,0 -0.78516,-0.35156 -0.78516,-0.78516 0,-0.43359 0.35156,-0.78516 0.78516,-0.78516 h 6.4492 c 0.43359,0 0.78516,0.35156 0.78516,0.78516 0,0.43359 -0.34766,0.78516 -0.78125,0.78516 z"
         id="path14" />
      <path
         d="m 65.172,78.723 h -6.4492 c -0.43359,0 -0.78516,-0.35156 -0.78516,-0.78516 0,-0.4336 0.35156,-0.78516 0.78516,-0.78516 h 6.4492 c 0.43359,0 0.78516,0.35156 0.78516,0.78516 0,0.4336 -0.35156,0.78516 -0.78516,0.78516 z"
         id="path15" />
      <path
         d="m 31.008,37.609 h -6.4492 c -0.43359,0 -0.78516,-0.35156 -0.78516,-0.78516 0,-0.43359 0.35156,-0.78516 0.78516,-0.78516 h 6.4492 c 0.43359,0 0.78516,0.35156 0.78516,0.78516 0,0.43359 -0.35156,0.78516 -0.78516,0.78516 z"
         id="path2"
         style="display:inline" />
    </g>
    <!-- Lettuce -->
    <path
       d="m 78.938,79.621 c -0.32031,0 -0.62891,-0.20312 -0.74219,-0.52344 -0.14453,-0.40625 0.07031,-0.85547 0.47656,-1 0.01953,-0.0078 2.1016,-0.76172 4.0273,-2.4297 2.5039,-2.168 3.5898,-4.8086 3.2344,-7.8516 v -0.0078 c -0.05469,-0.53516 -0.17188,-1.1016 -0.33594,-1.6953 -0.77734,-2.7812 -0.40234,-4.7344 -0.04297,-6.6289 0.07812,-0.41016 0.16016,-0.83594 0.22656,-1.2656 0.3125,-1.9375 0.40234,-4.2383 -1.0781,-7.9297 -1.4375,-3.5977 -3.2344,-5.5703 -4.8242,-7.3164 -0.99609,-1.0977 -1.9375,-2.1328 -2.6953,-3.4336 -0.85156,-1.4648 -1.3438,-3.0586 -1.5508,-5.0117 -0.73047,-6.8711 -5.75,-11.145 -12.789,-10.895 -4,0.14453 -6.125,-1.0742 -8.1875,-2.25 -1.8945,-1.0859 -3.6836,-2.1094 -7.0352,-2.2305 -4.5703,-0.16406 -6.8438,1.0391 -9.25,2.3086 -1.3047,0.6875 -2.6523,1.3984 -4.3672,1.8828 -2.2109,0.61719 -4.0938,0.08594 -5.9102,-0.42969 -2.3711,-0.67187 -4.6094,-1.3047 -7.7891,0.37109 -2.9023,1.5273 -3.9492,3.6055 -5.0547,5.8125 -1.0508,2.0977 -2.1367,4.2578 -4.8477,5.7695 -1.7422,1.0938 -2.8164,2.5469 -3.1953,4.3203 -0.44922,2.1055 0.14844,4.332 0.73047,5.8281 0.64844,1.6641 1.4219,2.8281 1.4297,2.8398 0.24219,0.35938 0.14453,0.84766 -0.21094,1.0898 -0.35938,0.24219 -0.84766,0.14453 -1.0898,-0.21094 -0.035156,-0.05078 -0.86328,-1.293 -1.5742,-3.1094 -0.42188,-1.0742 -0.71484,-2.1289 -0.87109,-3.1406 -0.20312,-1.2852 -0.18359,-2.5039 0.050781,-3.6172 0.46875,-2.2109 1.7891,-4.0078 3.9141,-5.3398 0.015624,-0.0078 0.023437,-0.01563 0.035156,-0.01953 2.2969,-1.2734 3.2344,-3.1367 4.2227,-5.1094 0.57031,-1.1328 1.1562,-2.3047 2.0234,-3.4219 0.98828,-1.2812 2.2031,-2.2812 3.707,-3.0703 3.7344,-1.9648 6.5039,-1.1836 8.9492,-0.48828 1.6836,0.47656 3.2734,0.92969 5.0625,0.42969 1.5508,-0.43359 2.7695,-1.0742 4.0586,-1.7578 2.4805,-1.3125 5.0508,-2.6719 10.043,-2.4883 1.6758,0.05859 3.1602,0.33984 4.5586,0.85547 1.2266,0.45703 2.2305,1.0273 3.1992,1.5781 1.9531,1.1172 3.7969,2.1719 7.3516,2.0469 1.8984,-0.06641 3.707,0.16406 5.3711,0.69922 1.6523,0.53125 3.1367,1.3398 4.4141,2.4141 2.6211,2.207 4.2188,5.3789 4.6211,9.1797 0.40234,3.7617 1.9219,5.4336 3.8477,7.5508 1.6758,1.8438 3.5781,3.9336 5.1211,7.7891 1.6172,4.043 1.5195,6.6016 1.1719,8.7617 -0.07031,0.44922 -0.15234,0.88672 -0.23438,1.3125 -0.33984,1.793 -0.66406,3.4883 0.01563,5.9102 0.1875,0.67578 0.31641,1.332 0.38672,1.9492 0.23047,1.9805 -0.06641,3.8477 -0.89062,5.5547 -0.65234,1.3516 -1.6328,2.5938 -2.9141,3.6953 -2.1484,1.8516 -4.3984,2.6523 -4.4922,2.6875 -0.10547,0.02344 -0.19141,0.03516 -0.27734,0.03516 z"
       id="path16" />
    <path
       d="m 67.93,40.641 c -0.19922,0 -0.39453,-0.07031 -0.55078,-0.22266 -0.30859,-0.30078 -0.31641,-0.79688 -0.01563,-1.1094 1.0156,-1.0391 1.5703,-2.4219 1.5703,-3.8867 0,-0.77344 -1.0078,-1.6406 -2.6914,-2.3164 -1.3633,-0.55078 -3.1094,-0.94922 -4.6719,-1.0703 -1.6914,-0.12891 -2.5312,0.125 -2.6758,0.26562 -0.24219,0.35156 -0.72656,0.44141 -1.0859,0.19922 -0.35934,-0.24219 -0.44922,-0.73047 -0.20703,-1.0898 0.46875,-0.69141 1.6016,-1.0195 3.3633,-0.97656 1.4492,0.03516 3.1484,0.32031 4.6602,0.79297 3.1406,0.96875 4.875,2.457 4.875,4.1992 0,1.875 -0.71484,3.6445 -2.0195,4.9805 -0.14453,0.15234 -0.34766,0.23438 -0.55078,0.23438 z m -9.0273,-8.3477 z"
       id="path17" />
    <path
       d="m 20.914,34.402 c -0.26562,0 -0.53125,-0.13672 -0.67578,-0.38672 -0.10938,-0.17969 -0.38672,-0.65625 0.14844,-2.6172 0.32031,-1.1836 0.82422,-2.4102 1.375,-3.375 0.43359,-0.76172 0.90234,-1.3672 1.3867,-1.8047 0.63281,-0.57031 1.3047,-0.85938 1.9922,-0.85938 1.1445,0 2.25,0.34375 3.1953,0.98828 0.92187,0.63281 1.6328,1.5078 2.0625,2.5391 0.16406,0.40234 -0.02344,0.85938 -0.42578,1.0234 -0.40234,0.16406 -0.85938,-0.02344 -1.0234,-0.42578 -0.64844,-1.5586 -2.1406,-2.5625 -3.8086,-2.5625 -0.5,0 -0.98828,0.45703 -1.3164,0.83984 -0.61328,0.72656 -1.2227,1.8906 -1.6719,3.207 -0.41406,1.2109 -0.53906,2.0898 -0.51953,2.3398 0.14844,0.35547 0.01563,0.77734 -0.32812,0.97656 -0.11719,0.08203 -0.25391,0.11719 -0.39063,0.11719 z m 0.72656,-1.0547 z m -0.05078,-0.125 z"
       id="path18" />
    <path
       d="m 76.277,60.719 c -0.38281,0 -0.71484,-0.27734 -0.77734,-0.66406 -0.0625,-0.42969 0.22656,-0.82813 0.65625,-0.89453 1.8906,-0.28906 3.3164,-1.9648 3.3164,-3.9023 0,-0.73437 -0.81641,-1.6406 -2.2422,-2.4922 -1.3164,-0.78516 -2.6133,-1.2109 -2.9258,-1.2656 -0.35938,0.02734 -0.69922,-0.19922 -0.80859,-0.55469 -0.125,-0.41406 0.10938,-0.85156 0.52344,-0.97656 0.16016,-0.04687 0.52734,-0.16016 2.1289,0.50781 0.60937,0.25391 1.7812,0.79297 2.8242,1.5664 1.3711,1.0195 2.0664,2.1016 2.0664,3.2148 0,1.3242 -0.47656,2.6094 -1.3359,3.6094 -0.85156,0.99219 -2.0273,1.6445 -3.3086,1.8398 -0.03516,0.0039 -0.07813,0.01172 -0.11719,0.01172 z"
       id="path19" />
    <path
       d="m 86.715,68.512 c -0.375,0 -0.70703,-0.27344 -0.77344,-0.65234 -0.07031,-0.42578 0.21484,-0.83203 0.64062,-0.90625 1.8125,-0.30859 3.2695,-2.9648 3.2695,-4.9609 0,-1.1211 -0.38672,-2.4648 -3.3984,-2.8711 -0.42969,-0.05859 -0.73047,-0.45312 -0.67188,-0.87891 0.05859,-0.42969 0.45312,-0.73047 0.87891,-0.67188 1.4219,0.19141 2.4922,0.58594 3.2812,1.1992 0.98047,0.76562 1.4766,1.8555 1.4766,3.2266 0,1.3242 -0.45703,2.7969 -1.25,4.0312 -0.89062,1.3828 -2.0664,2.2656 -3.3242,2.4766 -0.03906,0.0078 -0.08594,0.0078 -0.12891,0.0078 z"
       id="path20" />
    <path
       d="m 49.375,29.129 c -0.05078,0 -0.10547,-0.0039 -0.15625,-0.01563 -0.35156,-0.07031 -0.60156,-0.36719 -0.625,-0.70703 -0.06641,-0.24219 -0.44922,-1.25 -1.0977,-2.2617 -0.70312,-1.0898 -1.4297,-1.7148 -2,-1.7148 -1.6523,0 -3.0352,1.3008 -3.1445,2.9648 -0.03125,0.42969 -0.40234,0.76172 -0.83594,0.73047 -0.42969,-0.03125 -0.76172,-0.40234 -0.73047,-0.83594 0.16406,-2.4805 2.2305,-4.4297 4.7109,-4.4297 0.93359,0 1.8438,0.53906 2.7109,1.5977 0.63672,0.78125 1.1211,1.6836 1.4102,2.3008 0.19141,0.40625 0.3125,0.72266 0.38281,0.91016 0.14844,0.41406 0.18359,0.61719 0.14453,0.82812 -0.07422,0.375 -0.40234,0.63281 -0.76953,0.63281 z m -0.77344,-0.69531 z m 0.0039,-0.24609 z"
       id="path21" />
  </g>
  <g
     id="g120"
     style="display:inline"
     transform="translate(-4.7734381,-17.583889)">
    <!-- shell -->
    <!-- Lettuce -->
  </g>
</svg>
